<svg width="13" height="14" viewBox="0 0 13 14" fill="none" xmlns="http://www.w3.org/2000/svg">
<path fill-rule="evenodd" clip-rule="evenodd" d="M4.02844 1.69855H8.50109C10.2499 1.69855 11.4209 2.92582 11.4209 4.75202V8.96673C11.4209 10.7883 10.2499 12.0161 8.50109 12.0161H4.02844C2.27962 12.0161 1.10342 10.7883 1.10342 8.96673V4.75202C1.10342 2.92582 2.27962 1.69855 4.02844 1.69855ZM8.10902 8.8228C8.23799 8.8228 8.36696 8.75573 8.43918 8.63192C8.55268 8.45085 8.49077 8.21355 8.30506 8.10057L6.46854 7.00691V4.62305C6.46854 4.41206 6.2983 4.23614 6.08163 4.23614C5.87012 4.23614 5.69472 4.41206 5.69472 4.62305V7.22874C5.69472 7.36287 5.76694 7.49184 5.8856 7.5589L7.90783 8.76605C7.96974 8.80732 8.04196 8.8228 8.10902 8.8228Z" fill="#FFC30D"/>
</svg>
